<svg width="2401" height="739" viewBox="0 0 2401 739" fill="none" xmlns="http://www.w3.org/2000/svg">
<line x1="194.123" y1="212.317" x2="275.123" y2="595.318" stroke="#C1C1C1" stroke-width="10"/>
<line x1="510.939" y1="504.29" x2="272.107" y2="600.987" stroke="#C1C1C1" stroke-width="10"/>
<line x1="678.204" y1="400.781" x2="1111.2" y2="208.781" stroke="#C1C1C1" stroke-width="10"/>
<line x1="573.132" y1="364.94" x2="187.357" y2="208.988" stroke="#C1C1C1" stroke-width="10"/>
<circle cx="1113.23" cy="204.352" r="81" fill="url(#paint0_linear_601_11)"/>
<circle cx="189.231" cy="204.352" r="81" fill="url(#paint1_linear_601_11)"/>
<circle cx="270.231" cy="596.352" r="81" fill="url(#paint2_linear_601_11)"/>
<path fill-rule="evenodd" clip-rule="evenodd" d="M906.573 442.535C907.668 433.293 908.231 423.888 908.231 414.352C908.231 283.461 802.122 177.352 671.231 177.352C540.339 177.352 434.231 283.461 434.231 414.352C434.231 545.244 540.339 651.352 671.231 651.352C738.583 651.352 799.373 623.257 842.521 578.147C837.746 575.233 833.375 571.848 829.406 567.993C822.901 561.296 817.735 553.356 813.908 544.172C810.273 534.988 808.455 524.943 808.455 514.037C808.455 503.131 810.273 493.086 813.908 483.902C817.735 474.718 822.901 466.873 829.406 460.368C836.103 453.671 843.948 448.505 852.94 444.87C862.124 441.043 872.169 439.13 883.075 439.13C891.475 439.13 899.308 440.265 906.573 442.535ZM899.615 477.9C898.718 477.473 897.797 477.082 896.851 476.727C892.451 474.814 887.859 473.857 883.075 473.857C878.101 473.857 873.413 474.814 869.012 476.727C864.612 478.449 860.689 481.032 857.245 484.476C853.801 487.92 851.027 492.129 848.922 497.104C847.009 502.079 846.052 507.723 846.052 514.037C846.052 520.351 847.009 525.995 848.922 530.97C851.027 535.945 853.801 540.154 857.245 543.598C859.78 546.133 862.574 548.253 865.627 549.958C880.758 528.307 892.365 504.01 899.615 477.9ZM543.052 378.86V584.352H581.797V508.871H615.376C625.134 508.871 634.223 507.34 642.641 504.279C651.251 501.026 658.713 496.53 665.027 490.79C671.341 485.05 676.316 478.258 679.951 470.413C683.587 462.377 685.404 453.48 685.404 443.722C685.404 434.155 683.587 425.45 679.951 417.605C676.316 409.569 671.341 402.681 665.027 396.941C658.713 391.201 651.251 386.8 642.641 383.739C634.223 380.486 625.134 378.86 615.376 378.86H543.052ZM638.91 463.525C633.744 469.265 626.091 472.135 615.95 472.135H581.797V415.596H615.95C621.116 415.596 625.613 416.361 629.439 417.892C633.266 419.423 636.423 421.527 638.91 424.206C641.589 426.693 643.502 429.659 644.65 433.103C645.99 436.547 646.659 440.087 646.659 443.722C646.659 451.184 644.076 457.785 638.91 463.525ZM743.607 443.722H708.306V584.352H745.903V515.472C745.903 509.732 746.668 504.47 748.199 499.687C749.921 494.712 752.217 490.407 755.087 486.772C758.148 483.137 761.784 480.362 765.993 478.449C770.202 476.344 774.89 475.292 780.056 475.292C784.074 475.292 787.422 475.675 790.101 476.44C792.971 477.014 795.554 477.875 797.85 479.023L807.895 444.87C805.408 443.339 802.346 442.096 798.711 441.139C795.267 440.182 791.058 439.704 786.083 439.704C782.065 439.704 777.951 440.278 773.742 441.426C769.724 442.574 765.897 444.2 762.262 446.305C758.818 448.41 755.661 450.897 752.791 453.767C749.921 456.637 747.625 459.794 745.903 463.238H743.607V443.722Z" fill="url(#paint3_linear_601_11)"/>
<path fill-rule="evenodd" clip-rule="evenodd" d="M842.521 578.147C845.804 580.151 849.277 581.932 852.94 583.491C862.124 587.126 872.169 588.944 883.075 588.944C893.981 588.944 903.931 587.126 912.923 583.491C922.107 579.664 929.952 574.498 936.457 567.993C943.154 561.296 948.32 553.356 951.955 544.172C955.782 534.988 957.695 524.943 957.695 514.037C957.695 503.131 955.782 493.086 951.955 483.902C948.32 474.718 943.154 466.873 936.457 460.368C929.952 453.671 922.107 448.505 912.923 444.87C910.857 443.991 908.74 443.212 906.573 442.535C905.14 454.626 902.797 466.438 899.615 477.9C903.074 479.549 906.171 481.741 908.905 484.476C912.349 487.92 915.028 492.129 916.941 497.104C919.046 502.079 920.098 507.723 920.098 514.037C920.098 520.351 919.046 525.995 916.941 530.97C915.028 535.945 912.349 540.154 908.905 543.598C905.461 547.042 901.443 549.721 896.851 551.634C892.451 553.356 887.859 554.217 883.075 554.217C878.101 554.217 873.413 553.356 869.012 551.634C867.85 551.129 866.722 550.57 865.627 549.958C858.647 559.945 850.918 569.368 842.521 578.147ZM1084.31 567.419H1086.61V584.352H1121.91V378.86H1084.31V440.565L1086.61 460.655H1084.31C1080.87 454.724 1075.51 449.653 1068.24 445.444C1060.97 441.235 1051.98 439.13 1041.26 439.13C1032.27 439.13 1023.66 441.043 1015.43 444.87C1007.4 448.505 1000.22 453.671 993.907 460.368C987.784 466.873 982.905 474.718 979.27 483.902C975.634 493.086 973.817 503.131 973.817 514.037C973.817 524.943 975.634 534.988 979.27 544.172C982.905 553.356 987.784 561.296 993.907 567.993C1000.22 574.498 1007.4 579.664 1015.43 583.491C1023.66 587.126 1032.27 588.944 1041.26 588.944C1051.98 588.944 1060.97 586.839 1068.24 582.63C1075.51 578.421 1080.87 573.35 1084.31 567.419ZM1063.07 551.634C1058.67 553.356 1053.99 554.217 1049.01 554.217C1044.04 554.217 1039.25 553.26 1034.66 551.347C1030.26 549.434 1026.34 546.755 1022.89 543.311C1019.45 539.867 1016.68 535.658 1014.57 530.683C1012.47 525.708 1011.41 520.16 1011.41 514.037C1011.41 507.914 1012.47 502.366 1014.57 497.391C1016.68 492.416 1019.45 488.207 1022.89 484.763C1026.34 481.319 1030.26 478.64 1034.66 476.727C1039.25 474.814 1044.04 473.857 1049.01 473.857C1053.99 473.857 1058.67 474.814 1063.07 476.727C1067.67 478.449 1071.68 481.032 1075.13 484.476C1078.57 487.92 1081.35 492.129 1083.45 497.104C1085.56 502.079 1086.61 507.723 1086.61 514.037C1086.61 520.351 1085.56 525.995 1083.45 530.97C1081.35 535.945 1078.57 540.154 1075.13 543.598C1071.68 547.042 1067.67 549.721 1063.07 551.634ZM1248.94 565.984H1251.23V584.352H1286.53V443.722H1248.94V512.602C1248.94 518.342 1248.17 523.795 1246.64 528.961C1245.3 533.936 1243.2 538.336 1240.33 542.163C1237.65 545.798 1234.3 548.764 1230.28 551.06C1226.46 553.165 1221.96 554.217 1216.79 554.217C1208.18 554.217 1201.58 551.825 1196.99 547.042C1192.59 542.067 1190.39 534.51 1190.39 524.369V443.722H1152.79V528.961C1152.79 547.138 1157.1 561.679 1165.71 572.585C1174.51 583.491 1187.81 588.944 1205.6 588.944C1215.17 588.944 1223.68 586.935 1231.14 582.917C1238.61 578.708 1244.54 573.063 1248.94 565.984ZM1424.97 577.751C1436.06 570.098 1444.67 560.34 1450.8 548.477L1416.36 533.553C1413.1 540.25 1408.7 545.416 1403.15 549.051C1397.8 552.495 1391.19 554.217 1383.35 554.217C1378.38 554.217 1373.69 553.26 1369.29 551.347C1364.89 549.434 1360.96 546.755 1357.52 543.311C1354.27 539.867 1351.68 535.658 1349.77 530.683C1347.86 525.708 1346.9 520.16 1346.9 514.037C1346.9 507.914 1347.86 502.366 1349.77 497.391C1351.68 492.416 1354.27 488.207 1357.52 484.763C1360.96 481.319 1364.89 478.64 1369.29 476.727C1373.69 474.814 1378.38 473.857 1383.35 473.857C1391 473.857 1397.32 475.579 1402.29 479.023C1407.46 482.276 1411.67 487.155 1414.92 493.66L1449.36 479.31C1444.19 467.447 1436.06 457.785 1424.97 450.323C1413.87 442.861 1400.19 439.13 1383.92 439.13C1373.02 439.13 1362.97 441.043 1353.79 444.87C1344.8 448.505 1336.95 453.671 1330.26 460.368C1323.75 466.873 1318.58 474.718 1314.76 483.902C1311.12 493.086 1309.3 503.131 1309.3 514.037C1309.3 524.943 1311.12 534.988 1314.76 544.172C1318.58 553.165 1323.75 561.009 1330.26 567.706C1336.95 574.403 1344.8 579.664 1353.79 583.491C1362.97 587.126 1373.02 588.944 1383.92 588.944C1400.38 588.944 1414.06 585.213 1424.97 577.751ZM1463.15 475.866H1487.83V537.571C1487.83 553.452 1492.33 565.697 1501.32 574.307C1505.14 578.134 1509.83 581.195 1515.38 583.491C1521.12 585.596 1527.53 586.648 1534.61 586.648C1540.73 586.648 1546.28 586.074 1551.26 584.926C1556.42 583.969 1561.21 582.439 1565.61 580.334L1554.99 547.329C1553.27 548.477 1551.45 549.434 1549.53 550.199C1547.62 550.773 1545.04 551.06 1541.79 551.06C1536.81 551.06 1532.98 549.529 1530.31 546.468C1528.39 544.555 1527.05 542.259 1526.29 539.58C1525.71 536.71 1525.43 533.649 1525.43 530.396V475.866H1559.87V443.722H1525.43V400.672H1487.83V443.722H1463.15V475.866ZM1629.71 585.213C1637.75 587.7 1646.17 588.944 1654.97 588.944C1663 588.944 1671.23 587.7 1679.65 585.213C1688.07 582.726 1695.63 578.995 1702.32 574.02C1709.02 569.045 1714.47 562.731 1718.68 555.078C1723.08 547.233 1725.28 537.954 1725.28 527.239C1725.28 518.629 1723.94 511.071 1721.27 504.566C1718.78 497.869 1715.05 491.938 1710.07 486.772C1705.29 481.606 1699.45 477.205 1692.57 473.57C1685.87 469.743 1678.41 466.395 1670.18 463.525L1657.26 459.22C1645.59 455.202 1637.08 451.088 1631.72 446.879C1626.36 442.478 1623.69 437.217 1623.69 431.094C1623.69 424.78 1626.46 419.71 1632.01 415.883C1637.56 411.865 1644.54 409.856 1652.96 409.856C1661.76 409.856 1668.65 412.152 1673.62 416.744C1678.79 421.336 1682.33 426.502 1684.24 432.242L1718.4 417.892C1716.86 413.3 1714.47 408.421 1711.22 403.255C1707.97 398.089 1703.66 393.401 1698.31 389.192C1693.14 384.791 1686.73 381.252 1679.08 378.573C1671.61 375.703 1662.72 374.268 1652.39 374.268C1642.44 374.268 1633.35 375.799 1625.12 378.86C1617.08 381.73 1610.1 385.844 1604.17 391.201C1598.43 396.367 1593.93 402.49 1590.68 409.569C1587.62 416.457 1586.09 423.919 1586.09 431.955C1586.09 439.8 1587.52 446.879 1590.39 453.193C1593.46 459.316 1597.28 464.673 1601.87 469.265C1606.47 473.857 1611.54 477.779 1617.08 481.032C1622.82 484.285 1628.47 486.868 1634.02 488.781L1646.65 493.373C1654.11 496.052 1660.33 498.635 1665.3 501.122C1670.47 503.609 1674.58 506.192 1677.64 508.871C1680.89 511.55 1683.19 514.42 1684.53 517.481C1685.87 520.542 1686.54 523.986 1686.54 527.813C1686.54 531.831 1685.68 535.371 1683.96 538.432C1682.23 541.493 1679.84 544.076 1676.78 546.181C1673.91 548.094 1670.56 549.625 1666.74 550.773C1663.1 551.73 1659.27 552.208 1655.26 552.208C1644.35 552.208 1635.55 548.86 1628.85 542.163C1622.15 535.275 1617.47 526.665 1614.79 516.333L1578.34 530.683C1581.21 540.25 1585.13 548.668 1590.11 555.939C1595.08 563.018 1600.92 569.045 1607.61 574.02C1614.31 578.995 1621.68 582.726 1629.71 585.213ZM1843.4 565.984H1845.69V584.352H1880.99V443.722H1843.4V512.602C1843.4 518.342 1842.63 523.795 1841.1 528.961C1839.76 533.936 1837.66 538.336 1834.79 542.163C1832.11 545.798 1828.76 548.764 1824.74 551.06C1820.92 553.165 1816.42 554.217 1811.25 554.217C1802.64 554.217 1796.04 551.825 1791.45 547.042C1787.05 542.067 1784.85 534.51 1784.85 524.369V443.722H1747.25V528.961C1747.25 547.138 1751.56 561.679 1760.17 572.585C1768.97 583.491 1782.27 588.944 1800.06 588.944C1809.63 588.944 1818.14 586.935 1825.6 582.917C1833.07 578.708 1839 573.063 1843.4 565.984ZM1948.5 443.722H1913.2V584.352H1950.8V515.472C1950.8 509.732 1951.56 504.47 1953.09 499.687C1954.82 494.712 1957.11 490.407 1959.98 486.772C1963.04 483.137 1966.68 480.362 1970.89 478.449C1975.1 476.344 1979.79 475.292 1984.95 475.292C1988.97 475.292 1992.32 475.675 1995 476.44C1997.87 477.014 2000.45 477.875 2002.75 479.023L2012.79 444.87C2010.3 443.339 2007.24 442.096 2003.61 441.139C2000.16 440.182 1995.95 439.704 1990.98 439.704C1986.96 439.704 1982.85 440.278 1978.64 441.426C1974.62 442.574 1970.79 444.2 1967.16 446.305C1963.71 448.41 1960.56 450.897 1957.69 453.767C1954.82 456.637 1952.52 459.794 1950.8 463.238H1948.5V443.722ZM2128.15 578.325C2139.25 571.246 2148.05 561.966 2154.55 550.486L2123.27 534.988C2120.02 540.919 2115.52 545.894 2109.78 549.912C2104.23 553.739 2097.15 555.652 2088.54 555.652C2084.14 555.652 2079.84 555.078 2075.63 553.93C2071.42 552.591 2067.5 550.582 2063.86 547.903C2060.42 545.033 2057.45 541.589 2054.97 537.571C2052.67 533.362 2051.14 528.387 2050.37 522.647H2156.28C2156.28 521.499 2156.37 520.447 2156.56 519.49C2156.56 518.533 2156.66 517.481 2156.85 516.333V512.889C2156.85 502.366 2155.32 492.608 2152.26 483.615C2149.2 474.622 2144.7 466.873 2138.77 460.368C2132.84 453.671 2125.47 448.505 2116.67 444.87C2107.87 441.043 2097.82 439.13 2086.54 439.13C2075.82 439.13 2065.97 441.139 2056.97 445.157C2048.17 449.175 2040.52 454.628 2034.01 461.516C2027.51 468.213 2022.44 476.153 2018.8 485.337C2015.17 494.33 2013.35 503.896 2013.35 514.037C2013.35 524.943 2015.17 534.988 2018.8 544.172C2022.63 553.165 2027.89 561.009 2034.59 567.706C2041.29 574.403 2049.13 579.664 2058.12 583.491C2067.31 587.126 2077.26 588.944 2087.97 588.944C2103.85 588.944 2117.24 585.404 2128.15 578.325ZM2117.82 487.633C2119.35 490.694 2120.21 493.469 2120.4 495.956H2052.38C2054.87 487.729 2059.18 481.319 2065.3 476.727C2071.42 472.135 2078.5 469.839 2086.54 469.839C2092.28 469.839 2097.15 470.7 2101.17 472.422C2105.38 474.144 2108.83 476.344 2111.5 479.023C2114.37 481.702 2116.48 484.572 2117.82 487.633Z" fill="url(#paint4_linear_601_11)"/>
<defs>
<linearGradient id="paint0_linear_601_11" x1="1063.53" y1="123.352" x2="1158.03" y2="308.67" gradientUnits="userSpaceOnUse">
<stop stop-color="#AD1FDF"/>
<stop offset="1" stop-color="#713FFE"/>
</linearGradient>
<linearGradient id="paint1_linear_601_11" x1="139.526" y1="123.352" x2="234.026" y2="308.67" gradientUnits="userSpaceOnUse">
<stop stop-color="#AD1FDF"/>
<stop offset="1" stop-color="#713FFE"/>
</linearGradient>
<linearGradient id="paint2_linear_601_11" x1="220.526" y1="515.352" x2="315.026" y2="700.67" gradientUnits="userSpaceOnUse">
<stop stop-color="#AD1FDF"/>
<stop offset="1" stop-color="#713FFE"/>
</linearGradient>
<linearGradient id="paint3_linear_601_11" x1="525.799" y1="177.352" x2="802.299" y2="719.579" gradientUnits="userSpaceOnUse">
<stop stop-color="#AD1FDF"/>
<stop offset="1" stop-color="#713FFE"/>
</linearGradient>
<linearGradient id="paint4_linear_601_11" x1="814.494" y1="344.017" x2="1784.75" y2="588.944" gradientUnits="userSpaceOnUse">
<stop stop-color="#8E30F0"/>
<stop offset="1" stop-color="#7D39F8"/>
</linearGradient>
</defs>
</svg>
